<mxfile host="app.diagrams.net" modified="2023-07-21T10:04:18.048Z" agent="Mozilla/5.0 (Macintosh; Intel Mac OS X 10_15_7) AppleWebKit/537.36 (KHTML, like Gecko) Chrome/114.0.0.0 Safari/537.36" version="21.4.0" etag="bZ1JUM-k-9vM-UP5rgRh" type="github">
  <diagram name="第 1 页" id="mLN284WDr0dXjR6yY6EM">
    <mxGraphModel>
      <root>
        <mxCell id="0" />
        <mxCell id="1" parent="0" />
      </root>
    </mxGraphModel>
  </diagram>
</mxfile>
